HIERARCHY
ROOT hip
{
	OFFSET 0.000000 0.000000 0.000000 
	CHANNELS 6 Xposition Yposition Zposition Xrotation Zrotation Yrotation
	JOINT abdomen
	{
		OFFSET 0.000000 3.402643 0.000000 
		CHANNELS 3 Xrotation Zrotation Yrotation
		JOINT chest
		{
			OFFSET 0.000000 8.438565 -0.680529 
			CHANNELS 3 Xrotation Zrotation Yrotation
			JOINT neck
			{
				OFFSET 0.000000 10.207942 -0.272212 
				CHANNELS 3 Xrotation Zrotation Yrotation
				JOINT head
				{
					OFFSET 0.000000 3.130431 0.000000 
					CHANNELS 3 Xrotation Zrotation Yrotation
					End Site
					{
						OFFSET 0.000000 3.130435 0.000000 
					}
				}
			}
			JOINT lCollar
			{
				OFFSET 3.470700 6.669187 -0.816635 
				CHANNELS 3 Yrotation Zrotation Xrotation
				JOINT lShldr
				{
					OFFSET 3.198488 0.000000 0.000000 
					CHANNELS 3 Zrotation Yrotation Xrotation
					JOINT lForeArm
					{
						OFFSET 10.139888 0.000000 0.000000 
						CHANNELS 3 Yrotation Zrotation Xrotation
						JOINT lHand
						{
							OFFSET 8.370511 0.000000 0.000000 
							CHANNELS 3 Zrotation Yrotation Xrotation
							End Site
							{
								OFFSET 4.083176 0.000000 0.000000 
							}
						}
					}
				}
			}
			JOINT rCollar
			{
				OFFSET -3.470700 6.669187 -0.816635 
				CHANNELS 3 Yrotation Zrotation Xrotation
				JOINT rShldr
				{
					OFFSET -3.198488 0.000000 0.000000 
					CHANNELS 3 Zrotation Yrotation Xrotation
					JOINT rForeArm
					{
						OFFSET -10.139888 0.000000 0.000000 
						CHANNELS 3 Yrotation Zrotation Xrotation
						JOINT rHand
						{
							OFFSET -8.370511 0.000000 0.000000 
							CHANNELS 3 Zrotation Yrotation Xrotation
							End Site
							{
								OFFSET -4.083176 0.000000 0.000000 
							}
						}
					}
				}
			}
		}
	}
	JOINT lThigh
	{
		OFFSET 5.308129 -1.633274 1.361059 
		CHANNELS 3 Xrotation Zrotation Yrotation
		JOINT lShin
		{
			OFFSET -2.041588 -20.007561 0.000000 
			CHANNELS 3 Xrotation Zrotation Yrotation
			JOINT lFoot
			{
				OFFSET 0.000000 -19.190928 -1.224953 
				CHANNELS 3 Xrotation Yrotation Zrotation
				End Site
				{
					OFFSET 0.000000 -2.449906 4.627600 
				}
			}
		}
	}
	JOINT rThigh
	{
		OFFSET -5.308129 -1.633274 1.361059 
		CHANNELS 3 Xrotation Zrotation Yrotation
		JOINT rShin
		{
			OFFSET 2.041588 -20.007561 0.000000 
			CHANNELS 3 Xrotation Zrotation Yrotation
			JOINT rFoot
			{
				OFFSET 0.000000 -19.190928 -1.224953 
				CHANNELS 3 Xrotation Yrotation Zrotation
				End Site
				{
					OFFSET 0.000000 -2.449906 4.627600 
				}
			}
		}
	}
}
MOTION
Frames: 15
Frame Time: 0.033333
1.491914 51.943298 1.519489 0.465273 0.663930 -1.142615 0.000000 0.000000 0.000000 -1.947823 -1.767514 -0.488651 6.778716 -1.005858 -0.078284 6.002386 -0.800672 0.947310 -0.503199 9.964544 -1.269939 -9.016435 -0.714892 -10.595111 1.235456 -1.811262 7.278092 0.050976 -8.556483 -3.330762 0.344914 -10.028423 -1.159098 4.285498 -4.632713 -10.779538 -0.034983 4.569290 13.419719 -0.500505 7.640126 -3.395735 8.239175 5.878071 6.787375 -0.712782 -1.745311 14.459088 -5.547510 0.353840 -7.409760 7.055667 -9.554725 -8.820606 -1.316420 2.927005 -18.993155 -2.309487 -0.213370 8.090526 
1.496573 51.944054 1.523302 0.396448 0.693224 -1.132848 0.000000 0.000000 0.000000 -1.906612 -1.835857 -0.537459 6.854511 -1.123047 0.048819 5.971351 -0.302690 0.986314 -0.384045 10.127896 -1.260359 -9.256220 -0.819939 -10.651728 1.212079 -1.795395 7.229345 0.124934 -8.493465 -3.331652 0.434735 -9.873396 -1.109320 4.101460 -4.652702 -10.676038 -0.037728 4.609520 13.459411 -0.514337 7.541484 -3.396932 8.256614 5.856496 6.794135 -0.537154 -1.764795 14.362164 -5.695993 0.367286 -7.428392 7.098298 -9.607882 -8.857548 -1.258646 2.917991 -18.989140 -2.339545 -0.205609 8.136479 
1.498844 51.939651 1.524020 0.396408 0.683456 -1.152378 0.000000 0.000000 0.000000 -1.898132 -1.796804 -0.508175 6.863544 -1.240233 0.078107 6.042650 -0.146467 0.888669 -0.419829 9.991703 -1.241108 -9.131490 -0.842734 -10.566960 1.242765 -1.864199 7.014599 0.123787 -8.473969 -3.331777 0.412517 -10.009717 -1.109309 4.201927 -4.642039 -10.714414 -0.032511 4.571505 13.508086 -0.518284 7.629308 -3.388642 8.322936 5.836170 6.790333 -0.828960 -1.754280 14.612203 -5.469362 0.344672 -7.358856 7.028806 -9.616282 -8.887303 -1.103194 2.947881 -18.881929 -2.423530 -0.209617 8.147488 
1.508405 51.941544 1.527316 0.405774 0.663912 -1.220734 0.000000 0.000000 0.000000 -1.910502 -1.699167 -0.449600 6.851848 -1.416011 0.146440 6.172873 0.078119 0.732435 -0.416676 9.766869 -1.229782 -8.917781 -0.868480 -10.540154 1.298982 -1.884444 7.141654 0.053950 -8.438931 -3.331658 0.295428 -10.408032 -1.120617 4.568420 -4.500225 -10.787591 -0.038105 4.569265 13.458656 -0.627781 7.622837 -3.412576 8.285921 5.867202 6.824824 -0.644057 -1.773670 14.582828 -5.597840 0.359754 -7.376348 7.128505 -9.589739 -8.815936 -1.318504 2.918225 -18.856810 -2.296200 -0.220993 8.139713 
1.513823 51.934868 1.526884 0.453604 0.683426 -1.269557 0.000000 0.000000 0.000000 -1.936492 -1.806564 -0.527697 6.821933 -1.308587 0.185498 6.016264 0.039057 0.937506 -0.280333 10.086924 -1.300541 -9.185415 -0.873992 -10.572762 1.317200 -1.861741 7.180314 0.151355 -8.413745 -3.346099 0.436441 -10.020263 -1.139851 4.141387 -4.428969 -10.804311 -0.028848 4.628619 13.293144 -0.601080 7.507019 -3.408388 8.313237 5.816955 6.797683 -0.889278 -1.755808 14.674422 -5.460729 0.340054 -7.339427 6.891902 -9.646646 -8.809629 -0.971986 2.923536 -18.814400 -2.478095 -0.224688 8.184937 
1.527535 51.933754 1.522676 0.444271 0.663899 -1.269559 0.000000 0.000000 0.000000 -1.908374 -1.777277 -0.498413 6.843359 -1.249998 0.107396 5.975351 -0.078116 0.888671 -0.341934 9.980275 -1.239428 -9.060173 -0.855310 -10.603597 1.269792 -1.824982 7.366155 0.100930 -8.397095 -3.339084 0.372319 -9.979744 -1.118937 4.148542 -4.327544 -10.983829 -0.027508 4.512263 13.496831 -0.805198 7.455786 -3.434918 8.298176 5.819721 6.758366 -0.873839 -1.751334 14.780770 -5.444479 0.346206 -7.325754 6.881588 -9.674700 -8.852779 -0.936903 2.976229 -18.783693 -2.502624 -0.205277 8.182796 
1.537236 51.941795 1.512394 0.453701 0.644356 -1.337916 0.000000 0.000000 0.000000 -1.878601 -1.796804 -0.508175 6.892094 -1.191404 0.117162 5.898125 -0.019529 0.917969 -0.316489 9.881965 -1.229810 -9.002223 -0.838728 -10.506492 1.188886 -1.826726 7.297729 0.368453 -8.264156 -3.368134 0.393084 -9.677054 -1.088443 4.006471 -4.075917 -11.153332 -0.024396 4.400527 13.935707 -0.873131 7.295283 -3.432929 8.236999 5.817991 6.759415 -0.710968 -1.743779 14.869272 -5.523196 0.347691 -7.358703 7.059741 -9.676888 -8.925300 -1.292204 3.059166 -18.623714 -2.349653 -0.170346 8.098272 
1.558255 51.947208 1.500957 0.548547 0.722436 -1.416026 0.000000 0.000000 0.000000 -1.926909 -1.855396 -0.508179 6.852978 -1.328123 0.107393 5.892954 0.302704 0.810587 -0.241726 9.714795 -1.289203 -9.264382 -0.948378 -10.809344 1.118025 -1.695511 7.453701 0.860065 -8.431007 -3.421549 0.209483 -9.488503 -1.157517 4.286015 -3.371159 -11.670348 -0.018177 4.149400 14.430257 -2.019365 6.756957 -3.535294 8.149172 5.690908 6.614668 -0.801147 -1.696943 15.059143 -5.479764 0.350560 -7.314014 6.911054 -9.801951 -8.988717 -1.284996 3.100257 -18.545959 -2.315470 -0.186056 8.080553 
1.583555 51.963455 1.478242 0.676164 0.614994 -1.601575 0.000000 0.000000 0.000000 -2.023933 -1.757730 -0.556978 6.892418 -1.376952 0.087865 6.062027 0.615191 0.683659 -0.107883 9.849038 -1.367874 -10.646564 -0.981248 -12.117299 1.189687 -1.331717 6.348377 3.318617 -9.291367 -3.691595 0.013812 -9.279799 -1.245858 5.339543 -2.131941 -12.557994 0.003959 3.747151 14.746556 -4.437658 6.313120 -3.748118 8.023936 5.721672 6.561749 -0.772545 -1.638764 15.222497 -5.496917 0.346159 -7.326918 6.795259 -9.813405 -9.017456 -1.444879 3.259706 -18.365097 -2.174605 -0.198724 7.966844 
1.617937 51.972630 1.453025 0.832974 0.497769 -1.914075 0.000000 0.000000 0.000000 -2.112149 -1.611241 -0.596017 6.749872 -1.337889 -0.078332 6.243776 0.371077 0.546927 -0.116112 10.074463 -1.459522 -13.846937 -0.822092 -16.391695 1.189433 -0.190929 2.099181 8.587033 -10.475711 -4.345707 0.180508 -8.707582 -1.323063 6.495506 -0.961722 -12.386471 0.058331 3.765335 13.230457 -10.612514 7.002842 -4.329971 7.828309 5.759511 6.550729 -0.567638 -1.619677 15.425985 -5.673776 0.352916 -7.349125 6.571247 -9.745051 -8.875551 -1.489631 3.207385 -18.035093 -2.111535 -0.186080 8.012351 
1.683265 51.987732 1.416089 0.840206 0.439035 -2.500001 0.000000 0.000000 0.000000 -2.038285 -1.357364 -0.527658 6.547860 -1.103505 -0.254047 5.828232 -1.064390 0.625073 -0.134523 9.888803 -1.379169 -18.372641 -0.784947 -22.026203 0.610741 1.154036 -5.928816 14.870708 -10.813436 -5.144583 0.631863 -7.886356 -1.231842 7.855543 0.435433 -11.601185 -0.170027 3.881191 10.462983 -18.542866 7.762410 -5.164399 7.834795 5.690116 6.531565 -0.458833 -1.647146 15.947819 -5.758232 0.378376 -7.275950 6.472961 -9.794094 -8.771068 -1.669233 3.142231 -17.420565 -1.905328 -0.182653 8.082098 
1.768236 51.999805 1.361748 0.911142 0.116988 -3.339837 0.000000 0.000000 0.000000 -1.908729 -0.869124 -0.351670 6.140295 -0.957029 0.136700 5.946125 -1.015566 0.615311 -0.057296 8.772716 -1.226555 -22.463093 -1.074438 -27.776043 0.259299 3.023186 -8.782023 18.314768 -10.819870 -5.585247 1.216387 -6.352504 -1.099730 9.685793 0.667771 -10.347391 3.032571 3.905250 7.815494 -24.866909 7.161107 -5.652850 7.864692 5.777987 6.681398 -0.541524 -1.623974 16.840952 -5.725304 0.359059 -7.187916 6.246976 -9.605559 -8.466310 -1.832918 3.072283 -16.726728 -1.690774 -0.154308 8.108850 
1.884528 52.001949 1.290901 0.998710 -0.165553 -4.277383 0.000000 0.000000 0.000000 -1.747518 -0.517578 -0.058680 5.914853 -0.468740 0.380847 5.363219 -0.810509 0.556585 0.053478 6.650527 -1.052593 -25.950691 -0.916476 -30.312346 -1.537054 4.158940 -7.701133 20.294538 -9.930087 -5.678307 1.841929 -4.328239 -0.958948 13.079913 -4.330459 -8.810088 17.941931 3.329986 6.670076 -27.772642 3.463442 -5.094687 7.810168 5.858425 6.772060 -0.329588 -1.625891 17.620693 -5.926131 0.362652 -7.116007 5.875398 -9.547045 -8.264840 -1.783312 3.120276 -15.787448 -1.502885 -0.175935 8.148042 
2.013248 52.009109 1.163728 1.428882 -0.145918 -5.039096 0.000000 0.000000 0.000000 -1.788278 -0.527342 0.126948 5.361353 0.009766 0.146486 5.595292 -0.126952 0.185546 0.060906 4.843457 -1.068897 -31.399916 2.524592 -27.374352 -10.585281 3.471204 -5.745664 20.023491 -6.401476 -5.095721 2.483318 -2.641643 -1.005630 17.197205 -7.556284 -7.380250 28.199467 2.910618 7.293587 -27.144367 1.777541 -4.678288 7.286825 5.668663 6.509375 -0.252787 -1.607893 18.563786 -5.929672 0.370690 -6.984776 5.048152 -9.735539 -8.103763 -1.698512 3.054382 -14.979168 -1.313370 -0.126041 8.257054 
2.122465 52.002697 1.103988 1.302471 -0.330393 -5.693490 0.000000 0.000000 0.000000 -1.486822 -0.478509 0.292959 4.969939 0.498046 -0.087887 6.197736 0.839837 -0.234350 -0.324401 3.422710 -0.782757 -36.365059 6.318421 -21.692986 -18.384409 2.157976 -4.596469 15.792292 -4.312805 -4.451883 3.085582 -0.792496 -0.750923 21.716419 -9.180724 -6.212615 34.223694 2.737678 8.330184 -23.567474 2.173100 -4.583073 7.427744 5.671764 6.645169 -0.121901 -1.681484 19.143785 -6.047361 0.355147 -6.866168 4.937960 -9.702853 -7.989684 -1.669240 3.035064 -14.439653 -1.116990 -0.125421 8.314969 
